HIERARCHY
ROOT Hips
{
  OFFSET 13.6774 106.653 -34.4427
  CHANNELS 6 Xposition Yposition Zposition Zrotation Xrotation Yrotation
  JOINT ToSpine
  {
    OFFSET -2.69724 7.43032 -0.144315
    CHANNELS 3 Zrotation Xrotation Yrotation
    JOINT Spine
    {
      OFFSET -0.0310711 10.7595 1.96963
      CHANNELS 3 Zrotation Xrotation Yrotation
      JOINT Spine1
      {
        OFFSET 19.9056 3.91189 0.764692
        CHANNELS 3 Zrotation Xrotation Yrotation
        JOINT Neck
        {
          OFFSET 25.9749 7.03908 -0.130764
          CHANNELS 3 Zrotation Xrotation Yrotation
          JOINT Head
          {
            OFFSET 9.52751 0.295786 -0.907742
            CHANNELS 3 Zrotation Xrotation Yrotation
            End Site
            {
              OFFSET 16.4037 0.713936 2.7358
            }
          }
        }
        JOINT LeftShoulder
        {
          OFFSET 17.7449 4.33886 11.7777
          CHANNELS 3 Zrotation Xrotation Yrotation
          JOINT LeftArm
          {
            OFFSET 0.911315 1.27913 9.80584
            CHANNELS 3 Zrotation Xrotation Yrotation
            JOINT LeftForeArm
            {
              OFFSET 28.6126 1.18197 -3.53199
              CHANNELS 3 Zrotation Xrotation Yrotation
              JOINT LeftHand
              {
                OFFSET 27.5088 0.0218783 0.327423
                CHANNELS 3 Zrotation Xrotation Yrotation
                End Site
                {
                  OFFSET 18.6038 -0.000155887 0.382096
                }
              }
            }
          }
        }
        JOINT RightShoulder
        {
          OFFSET 17.1009 2.89543 -12.2328
          CHANNELS 3 Zrotation Xrotation Yrotation
          JOINT RightArm
          {
            OFFSET 1.4228 0.178766 -10.211
            CHANNELS 3 Zrotation Xrotation Yrotation
            JOINT RightForeArm
            {
              OFFSET 28.733 1.87905 2.64907
              CHANNELS 3 Zrotation Xrotation Yrotation
              JOINT RightHand
              {
                OFFSET 27.4588 0.290562 -0.101845
                CHANNELS 3 Zrotation Xrotation Yrotation
                End Site
                {
                  OFFSET 17.8396 -0.255518 -0.000602873
                }
              }
            }
          }
        }
      }
    }
  }
  JOINT LeftUpLeg
  {
    OFFSET -5.61296 -2.22332 -10.2353
    CHANNELS 3 Zrotation Xrotation Yrotation
    JOINT LeftLeg
    {
      OFFSET 2.56703 -44.7417 -7.93097
      CHANNELS 3 Zrotation Xrotation Yrotation
      JOINT LeftFoot
      {
        OFFSET 3.16933 -46.5642 -3.96578
        CHANNELS 3 Zrotation Xrotation Yrotation
        JOINT LeftToeBase
        {
          OFFSET 0.346054 -6.02161 12.8035
          CHANNELS 3 Zrotation Xrotation Yrotation
          End Site
          {
            OFFSET 0.134235 -1.35082 5.13018
          }
        }
      }
    }
  }
  JOINT RightUpLeg
  {
    OFFSET -5.7928 -1.72406 10.6446
    CHANNELS 3 Zrotation Xrotation Yrotation
    JOINT RightLeg
    {
      OFFSET -2.57161 -44.7178 -7.85259
      CHANNELS 3 Zrotation Xrotation Yrotation
      JOINT RightFoot
      {
        OFFSET -3.10148 -46.5936 -4.03391
        CHANNELS 3 Zrotation Xrotation Yrotation
        JOINT RightToeBase
        {
          OFFSET -0.0828122 -6.13587 12.8035
          CHANNELS 3 Zrotation Xrotation Yrotation
          End Site
          {
            OFFSET -0.131328 -1.35082 5.13018
          }
        }
      }
    }
  }
}
MOTION
Frames: 14
Frame Time: 0.03333333333333333
0.0000 93.1000 0.0000 77.1547 -1.9547 2.1817 -71.0168 -0.0306 88.0691 79.1562 69.0441 3.9853 2.1208 17.6079 3.1513 -116.0345 30.6545 159.0024 -178.6774 74.5423 -147.9173 -0.7586 -19.0979 -31.9133 -51.6223 24.9947 -139.0196 32.4910 -5.9625 -98.1419 0.0907 -0.2521 0.4845 -2.7854 6.0614 50.8725 -116.6598 -6.0179 102.6452 21.1994 -16.0397 55.6800 0.6087 -0.1227 0.3325 -58.2167 17.0565 95.8318 -2.9948 47.7970 -3.3109 0.0388 -22.9423 -2.2133 1.3569 -8.0270 11.7642 -36.1083 -11.6967 72.0889 1.8811 43.6129 0.0007 -21.6131 4.7947 2.9901 1.9086 -22.7304 -3.9423 
0.0000 93.1000 0.0000 76.5432 -1.1451 2.3094 -71.0449 -0.0720 88.0621 80.9739 68.1640 2.0413 2.5395 16.9555 2.6088 -115.1687 30.1609 159.0685 -176.6743 74.5606 -148.4775 -0.7083 -19.8964 -32.5896 -52.9161 26.9436 -139.9158 32.9418 -5.0832 -96.9784 0.2005 -0.4829 0.6132 -2.8674 6.4974 51.9449 -116.7513 -4.7697 106.4669 17.8731 -16.5098 49.6551 0.6006 -0.3418 0.2726 -58.1926 18.1028 97.7871 -4.0398 47.6799 -4.2296 0.3806 -20.7503 -2.0563 2.7844 -10.0460 11.9090 -35.8710 -13.0597 70.7836 1.7665 44.5922 4.2153 -19.3421 4.6478 2.4072 1.9107 -20.3816 -11.5254 
0.0000 93.1000 0.0000 76.5763 -0.9461 2.4598 -71.0542 0.0318 88.0477 80.1050 68.0636 2.0386 2.6811 16.7909 3.6423 -115.7320 30.4235 156.7796 -175.9619 74.9251 -149.5649 -1.2155 -20.3001 -32.6073 -53.7622 26.8717 -140.2155 32.3718 -5.1649 -96.9254 -0.0683 -0.0413 0.0208 -2.9395 6.8117 52.6013 -115.9509 -3.1633 109.1906 11.5940 -12.3670 47.6981 0.1591 0.2702 -0.0774 -58.1551 18.8509 99.8373 -3.8027 46.0148 -4.8247 -0.2323 -20.4816 -2.4061 2.6506 -9.9583 8.5947 -36.5056 -14.0661 69.3046 1.9551 44.0933 1.1013 -21.3437 3.6139 3.0038 1.3672 -20.5631 -3.5167 
0.0000 93.1000 0.0000 76.3258 -0.8987 1.2488 -71.0504 -0.0001 88.0361 81.0258 67.8879 1.0032 2.1637 16.9925 3.4672 -116.0580 30.4183 158.2842 -177.7697 75.2362 -146.2688 -1.1037 -20.3028 -32.2917 -53.8594 26.1838 -141.1703 32.0428 -5.0511 -96.9181 -0.0539 -0.1547 0.0637 -2.9462 7.1179 52.7228 -118.6668 -3.8036 110.9710 15.9419 -15.7636 48.2931 -0.1244 0.1136 0.2058 -59.4247 18.1282 100.0598 -2.9148 43.8178 -5.3438 -1.5452 -21.9472 -2.2901 2.0627 -8.1084 7.7748 -35.6507 -14.1721 68.9404 1.4610 44.1902 3.0891 -20.8903 3.9968 2.8523 1.7997 -21.7461 -7.5627 
0.0000 93.1000 0.0000 75.5902 0.0806 1.2913 -71.0530 0.0107 88.0366 81.2499 67.8530 1.8280 2.1151 16.8934 2.8777 -117.8788 30.4605 160.2484 -179.4638 75.1394 -146.9896 -1.0375 -19.4009 -30.8968 -54.5765 25.7200 -142.2345 31.6971 -5.1278 -96.9423 0.0548 -0.0728 0.1617 -2.9689 7.1721 53.4730 -119.7425 -4.0502 112.2568 17.6255 -16.0863 50.2631 -0.2380 0.1539 0.1631 -58.8167 17.9524 98.8086 -2.6912 43.9375 -5.8767 -2.3675 -21.8322 -2.1739 2.1095 -8.6335 8.1991 -34.7909 -14.0720 69.7795 1.7464 44.9087 2.8895 -21.1330 3.4335 2.8485 1.7599 -21.9660 -8.2577 
0.0000 93.1000 0.0000 75.4815 0.0464 1.3113 -71.0667 0.0317 88.0430 81.3954 67.5726 1.8065 2.1315 16.6533 2.0834 -117.9754 30.1624 158.1206 -173.3601 75.0990 -150.7231 -1.0571 -18.8204 -29.0241 -54.8517 25.7393 -143.2217 30.4508 -5.1105 -96.9384 0.1011 0.0061 -0.0447 -2.9820 7.0402 53.3461 -120.8755 -4.0835 113.1765 17.9298 -15.2088 50.5681 -0.0031 0.2526 0.0586 -59.2592 16.8765 98.8441 -2.9683 42.9306 -6.0702 -2.1668 -20.8989 -2.2713 2.9309 -9.8284 8.5789 -35.0750 -14.3122 69.8408 2.2301 44.0933 2.8127 -20.9981 4.0727 2.8941 2.0275 -22.1167 -9.5119 
0.0000 93.1000 0.0000 75.5173 1.0648 1.2957 -71.0704 0.0028 88.0553 82.2757 67.7308 0.8378 1.8772 16.6367 1.9007 -119.0550 30.1730 156.9936 -172.0504 75.2068 -152.7551 -0.9011 -18.6218 -28.4030 -55.0829 26.1510 -144.1656 31.8958 -4.2156 -96.2334 -0.1266 -0.1559 -0.0020 -2.8989 6.9114 52.4187 -121.6569 -5.6303 113.3604 17.6102 -14.6336 50.7152 0.0671 0.0432 -0.0572 -59.2787 16.8642 99.1479 -3.0422 41.8329 -4.7997 -2.0380 -21.0300 -2.1468 2.6065 -9.7635 6.6458 -34.7428 -14.8720 69.4509 2.0411 43.9892 2.8708 -21.1509 3.4653 2.8515 1.8709 -21.8864 -7.4541 
0.0000 93.1000 0.0000 75.5680 1.1961 1.0900 -71.0609 0.1003 88.0263 82.2602 68.3849 1.9827 2.0465 16.8182 1.5500 -119.1035 31.0726 157.0628 -173.0467 75.0464 -152.7262 -1.3880 -18.8084 -28.1177 -55.1717 26.5209 -144.0508 31.0900 -4.3573 -96.0032 -0.1492 0.3486 -0.1898 -3.0219 6.9730 51.9607 -122.8530 -5.9972 113.0385 16.4636 -14.0308 51.6695 -0.2155 0.5917 -0.2617 -59.1371 16.9296 98.9484 -3.1754 41.7087 -4.4821 -2.6364 -22.1102 -2.6023 2.3083 -8.2802 3.9172 -35.9895 -15.2183 69.9470 2.0708 42.9908 2.9396 -20.9435 3.7634 3.1925 1.8348 -21.8763 -5.5361 
0.0000 93.1000 0.0000 75.4259 1.0084 1.6279 -71.0655 -0.0103 88.0348 82.2732 68.3153 0.9589 1.9837 16.8873 1.7171 -120.9235 31.8207 157.5584 -173.1438 75.2050 -153.6079 -0.8356 -18.7892 -28.5153 -55.0693 26.7033 -144.0684 30.9876 -4.0846 -96.0523 -0.1943 -0.2294 0.1564 -3.0625 7.0587 51.2611 -123.0090 -7.1429 113.3565 15.5252 -13.9054 51.7739 0.3985 -0.0467 0.2885 -59.3073 16.8823 98.7740 -3.4029 41.7978 -6.1975 -3.1055 -21.1853 -1.9353 2.5307 -9.1370 6.3516 -35.9857 -15.7237 68.7845 1.7360 43.0198 4.0078 -20.7541 3.9816 2.7500 1.8035 -21.6777 -6.2484 
0.0000 93.1000 0.0000 75.7791 1.0061 1.3938 -71.0704 0.0181 88.0274 82.3958 68.3372 0.8320 1.7492 17.0245 2.0947 -122.0377 32.1745 157.6751 -171.9345 75.7316 -154.8124 -1.0354 -18.8493 -28.3353 -54.8259 26.7267 -144.1548 31.1444 -4.1111 -96.1954 -0.1316 -0.0808 0.2515 -3.0658 7.1205 50.3363 -123.7305 -7.9106 113.2573 16.7791 -14.1262 52.6981 0.0704 0.0985 0.2235 -59.2077 16.9907 98.9785 -3.0199 41.7820 -7.1009 -3.8937 -21.1820 -1.9668 2.9154 -9.3699 7.0003 -36.0088 -16.0836 68.5981 1.7825 43.1807 4.2135 -21.0092 4.2619 2.8831 1.8375 -22.0367 -6.0303 
0.0000 93.1000 0.0000 76.3398 0.2542 1.3647 -71.0668 0.0202 88.0401 81.3529 68.8898 1.1252 2.0904 17.6175 2.7112 -122.1325 32.4601 156.6799 -169.9308 75.7967 -155.8035 -1.0617 -19.2249 -29.0905 -54.7863 26.8805 -142.8768 30.8526 -4.3023 -96.0089 -0.0279 -0.0694 0.3333 -2.9663 6.9890 48.8851 -123.9060 -8.5041 112.5047 17.9196 -14.2394 53.8924 -0.0654 0.1092 0.2407 -60.1431 16.1503 99.0514 -3.0818 41.4528 -6.9742 -3.7691 -19.8420 -1.9188 4.1310 -10.5766 5.9440 -36.1288 -16.2443 68.6633 1.3500 43.1396 4.0318 -21.0552 4.0600 2.8168 1.9163 -21.8179 -5.9775 
0.0000 93.1000 0.0000 76.2627 0.1772 0.3271 -71.0621 -0.0018 88.0481 81.3199 69.3916 1.8835 2.7797 17.7416 2.7510 -123.9103 33.0121 157.7396 -170.2275 76.0998 -153.7099 -0.9563 -19.7378 -29.6623 -55.7789 26.7842 -142.8567 31.1084 -4.0132 -96.0422 -0.0935 -0.1953 0.3844 -2.8656 7.0226 48.3565 -123.5950 -8.6559 111.5344 17.7212 -14.0056 54.6206 0.0298 -0.0377 0.3178 -59.4016 15.6840 99.7588 -2.9494 42.7719 -5.1112 -4.0698 -19.8194 -1.6761 4.0059 -11.4746 3.9830 -36.0555 -16.1241 69.6705 2.1103 42.9447 3.6790 -20.9322 4.4107 2.6529 2.1878 -22.0889 -6.7154 
0.0000 93.1000 0.0000 76.4041 0.3187 0.4968 -71.0513 0.0573 88.0414 80.2586 69.3027 1.8544 3.0355 17.6881 3.9168 -124.0823 33.4719 158.6804 -173.2715 76.1583 -150.4394 -1.2122 -20.0469 -30.2667 -56.0399 26.9995 -142.0284 30.8781 -4.3618 -95.9628 -0.0369 0.0990 0.0256 -2.8814 6.8609 48.2423 -123.6320 -8.9497 111.6037 17.8311 -12.9940 54.8619 -0.0886 0.3314 0.2718 -60.1142 15.9134 100.0537 -2.9047 42.9579 -6.2119 -3.3496 -19.2783 -2.1781 5.6774 -14.6975 5.4640 -36.0962 -15.8227 70.0468 1.6764 42.7701 3.2991 -21.0412 5.0482 2.7940 1.8038 -22.0844 -7.2187 
0.0000 93.1000 0.0000 76.1355 0.1065 0.5438 -71.0523 0.0382 88.0438 79.3962 69.2076 2.9889 3.7288 17.9933 3.8869 -124.9124 34.0981 158.9751 -174.0810 76.6896 -150.8435 -1.0642 -19.9818 -30.2714 -56.1190 27.2630 -140.9365 31.1980 -4.2031 -96.0484 0.2149 -0.0329 0.1374 -2.8812 7.0993 48.4026 -123.5877 -8.6926 111.2699 16.8301 -13.1578 54.6086 0.0989 0.1855 0.3163 -60.0542 15.9803 98.9676 -2.6649 42.9721 -6.1291 -3.9241 -20.5195 -1.9753 4.1842 -10.6252 5.1111 -36.0701 -14.9992 70.7607 2.2890 42.6912 1.9961 -20.5975 4.1990 2.7339 2.0582 -20.7970 -6.8084 
